<svg xmlns="http://www.w3.org/2000/svg" xmlns:xlink="http://www.w3.org/1999/xlink" width="20" height="26" version="1.1" viewBox="0 0 20 26"><g fill="none" fill-rule="evenodd" stroke="none" stroke-width="1"><g fill="#87898C"><g transform="translate(-44.000000, -1120.000000) translate(44.000000, 1120.000000)"><path d="M0,0 L19.76,0 L19.76,26 L0,26 L0,0 Z M0.91,0.91 L0.91,25.09 L18.85,25.09 L18.85,0.91 L0.91,0.91 Z"/><rect width="5.2" height="1" x="3.38" y="3.9"/><rect width="5.2" height="1" x="3.38" y="6.76"/><rect width="13" height="1" x="3.38" y="9.62"/><path d="M3.38,12.48 L16.38,12.48 L16.38,19.11 L3.38,19.11 L3.38,12.48 Z M5.33,13.78 L5.33,14.69 L14.43,14.69 L14.43,13.78 L5.33,13.78 Z M5.33,16.9 L5.33,17.81 L14.43,17.81 L14.43,16.9 L5.33,16.9 Z M7.28,15.34 L7.28,16.25 L12.48,16.25 L12.48,15.34 L7.28,15.34 Z"/><rect width="3.9" height="1" x="3.38" y="21.06"/><rect width="3.9" height="1" x="12.48" y="21.06"/><rect width="3.9" height="1" x="7.93" y="21.06"/><rect width="6.5" height="3.77" x="9.88" y="3.9"/></g></g></g></svg>